<svg width="18" height="15" viewBox="0 0 18 15" fill="none" xmlns="http://www.w3.org/2000/svg">
<path d="M15.9 1.20314C16.0066 1.09434 16.1339 1.00791 16.2744 0.948898C16.4148 0.889891 16.5656 0.859497 16.718 0.859497C16.8703 0.859497 17.0211 0.889891 17.1616 0.948898C17.302 1.00791 17.4293 1.09434 17.5359 1.20314C17.9828 1.65471 17.9891 2.38439 17.5516 2.84377L8.3125 13.7656C8.2076 13.8808 8.08031 13.9734 7.9384 14.0377C7.7965 14.102 7.64296 14.1367 7.4872 14.1396C7.33143 14.1425 7.17671 14.1137 7.03249 14.0547C6.88827 13.9958 6.75759 13.9081 6.64844 13.7969L1.02656 8.10002C0.809745 7.8789 0.688293 7.58157 0.688293 7.27189C0.688293 6.96221 0.809745 6.66488 1.02656 6.44377C1.1332 6.33497 1.26047 6.24853 1.40092 6.18952C1.54137 6.13052 1.69219 6.10012 1.84453 6.10012C1.99688 6.10012 2.14769 6.13052 2.28814 6.18952C2.4286 6.24853 2.55587 6.33497 2.6625 6.44377L7.43125 11.2766L15.8687 1.23752C15.8785 1.22544 15.8889 1.21396 15.9 1.20314Z" fill="#74C69D"/>
</svg>
